# xmcd CD database file
# Copyright (C) 1993-1998 Ti Kan
# 
# Track frame offsets:
#     150
#     15362
#     31517
#     49195
#     76870
#     92372
#     111322
# 
# Disc length: 1752 seconds
# 
# Revision: 1
# Processed by: cddbd v1.4b41PL1 Copyright (c) Steve Scherf et al.
# Submitted via: DiscPlay 4.0.3
# 
DISCID=3d06d607
DTITLE=Soupbaby - no han solo
DYEAR=1900
DGENRE=
TTITLE0=bed
TTITLE1=it's still inside of me
TTITLE2=fishing in the ocean
TTITLE3=late night conversation
TTITLE4=greasy mind
TTITLE5=believe me
TTITLE6=burn out
EXTD=
EXTT0=
EXTT1=
EXTT2=
EXTT3=
EXTT4=
EXTT5=
EXTT6=
PLAYORDER=
